# xmcd
#
# Track frame offsets: 
#        150
#        33597
#        65770
#        88177
#        128842
#        171897
#        184802
#        213205
#        233235
#        255312
#        275280
#        292870
#        306770
#        317662
#
# Disc length: 4431 seconds
#
# Revision: 2
# Processed by: cddbd v1.5.2PL0 Copyright (c) Steve Scherf et al.
# Submitted via: ExactAudioCopy v1.0b3
#
DISCID=c5114d0e
DTITLE=Various Artist - The Best Of Jazz Vol. 3
DYEAR=1993
DGENRE=Jazz
TTITLE0=Stan Getz - Autumn Leaves
TTITLE1=Dave Brubeck - Blue Rondo
TTITLE2=Stephane Grappelli - You Took Advantage Of Me
TTITLE3=McCoy Tyner - Loverman
TTITLE4=Art Blakey - Moanin'
TTITLE5=Winton Marsalis - Blakey's Theme
TTITLE6=Gerry Mulligan - Apple Core
TTITLE7=Lionel Hampton - On The Sunny Side Of The Street
TTITLE8=Sonny Stitt - Sonny's Blues
TTITLE9=Chick Corea - Moments Notice
TTITLE10=Basily - Night And Day
TTITLE11=Teddy Wilson - One O'Clock Jump
TTITLE12=Jacobs and Van Dijk - I Got Rhythm
TTITLE13=Sonny Rollins - Everytime We Say Goodbye
EXTD=YEAR: 1993
EXTT0=
EXTT1=
EXTT2=
EXTT3=
EXTT4=
EXTT5=
EXTT6=
EXTT7=
EXTT8=
EXTT9=
EXTT10=
EXTT11=
EXTT12=
EXTT13=
PLAYORDER=
